<svg width="213" height="60" viewBox="0 0 213 60" fill="none" xmlns="http://www.w3.org/2000/svg">
<path d="M1 30C1 13.4315 14.4315 0 31 0H183C199.569 0 213 13.4315 213 30C213 46.5685 199.569 60 183 60H31C14.4315 60 1 46.5685 1 30Z" fill="#006504"/>
<path d="M87.0304 34.312C86.7424 34.744 86.3824 35.152 85.9504 35.536C85.5344 35.92 85.0544 36.256 84.5104 36.544C83.9664 36.816 83.3744 37.032 82.7344 37.192C82.1104 37.352 81.4464 37.432 80.7424 37.432C79.4784 37.432 78.3024 37.208 77.2144 36.76C76.1424 36.312 75.2064 35.696 74.4064 34.912C73.6224 34.112 73.0064 33.168 72.5584 32.08C72.1104 30.992 71.8864 29.8 71.8864 28.504C71.8864 27.208 72.1104 26.016 72.5584 24.928C73.0064 23.84 73.6224 22.904 74.4064 22.12C75.2064 21.32 76.1424 20.696 77.2144 20.248C78.3024 19.8 79.4784 19.576 80.7424 19.576C81.7984 19.576 82.8544 19.784 83.9104 20.2C84.9664 20.616 85.8704 21.304 86.6224 22.264L85.1104 23.392C84.9344 23.12 84.6944 22.848 84.3904 22.576C84.0864 22.304 83.7344 22.064 83.3344 21.856C82.9504 21.648 82.5344 21.48 82.0864 21.352C81.6384 21.224 81.1904 21.16 80.7424 21.16C79.6544 21.16 78.6784 21.36 77.8144 21.76C76.9504 22.16 76.2144 22.696 75.6064 23.368C75.0144 24.04 74.5584 24.824 74.2384 25.72C73.9184 26.6 73.7584 27.528 73.7584 28.504C73.7584 29.48 73.9184 30.416 74.2384 31.312C74.5584 32.192 75.0144 32.968 75.6064 33.64C76.2144 34.312 76.9504 34.848 77.8144 35.248C78.6784 35.648 79.6544 35.848 80.7424 35.848C81.1904 35.848 81.6304 35.808 82.0624 35.728C82.5104 35.648 82.9424 35.512 83.3584 35.32C83.7904 35.128 84.1904 34.872 84.5584 34.552C84.9424 34.216 85.2944 33.8 85.6144 33.304L87.0304 34.312ZM89.5288 29.272C89.5288 28.776 89.5128 28.272 89.4808 27.76C89.4648 27.248 89.4488 26.584 89.4328 25.768H90.9928V27.856H91.0408C91.1528 27.552 91.3128 27.264 91.5208 26.992C91.7288 26.704 91.9768 26.448 92.2648 26.224C92.5688 26 92.9128 25.824 93.2968 25.696C93.6968 25.552 94.1448 25.48 94.6408 25.48C95.0888 25.48 95.4808 25.528 95.8168 25.624L95.5048 27.184C95.2968 27.104 94.9928 27.064 94.5928 27.064C93.9848 27.064 93.4648 27.184 93.0328 27.424C92.6008 27.648 92.2408 27.944 91.9528 28.312C91.6648 28.664 91.4488 29.048 91.3048 29.464C91.1768 29.88 91.1128 30.28 91.1128 30.664V37H89.5288V29.272ZM105.644 30.52C105.644 29.448 105.324 28.584 104.684 27.928C104.044 27.256 103.148 26.92 101.996 26.92C101.484 26.92 100.988 27.024 100.508 27.232C100.028 27.424 99.6037 27.688 99.2357 28.024C98.8837 28.36 98.5957 28.744 98.3717 29.176C98.1637 29.608 98.0597 30.056 98.0597 30.52H105.644ZM98.0117 31.816C98.0597 32.376 98.1957 32.904 98.4197 33.4C98.6437 33.896 98.9397 34.328 99.3077 34.696C99.6757 35.048 100.1 35.328 100.58 35.536C101.06 35.744 101.58 35.848 102.14 35.848C102.988 35.848 103.716 35.656 104.324 35.272C104.948 34.872 105.42 34.416 105.74 33.904L106.964 34.912C106.292 35.76 105.548 36.368 104.732 36.736C103.932 37.104 103.068 37.288 102.14 37.288C101.308 37.288 100.532 37.144 99.8117 36.856C99.1077 36.552 98.4997 36.136 97.9877 35.608C97.4757 35.08 97.0677 34.456 96.7637 33.736C96.4757 33.016 96.3317 32.232 96.3317 31.384C96.3317 30.536 96.4757 29.752 96.7637 29.032C97.0517 28.312 97.4517 27.688 97.9637 27.16C98.4757 26.632 99.0757 26.224 99.7637 25.936C100.452 25.632 101.196 25.48 101.996 25.48C102.844 25.48 103.604 25.632 104.276 25.936C104.948 26.24 105.508 26.648 105.956 27.16C106.42 27.656 106.772 28.248 107.012 28.936C107.252 29.608 107.372 30.328 107.372 31.096V31.816H98.0117ZM116.628 31.408C116.228 31.408 115.724 31.432 115.116 31.48C114.524 31.512 113.948 31.608 113.388 31.768C112.844 31.912 112.372 32.144 111.972 32.464C111.588 32.784 111.396 33.224 111.396 33.784C111.396 34.152 111.468 34.472 111.612 34.744C111.772 35 111.98 35.216 112.236 35.392C112.492 35.552 112.772 35.672 113.076 35.752C113.396 35.816 113.716 35.848 114.036 35.848C114.612 35.848 115.108 35.752 115.524 35.56C115.956 35.368 116.316 35.112 116.604 34.792C116.892 34.456 117.1 34.072 117.228 33.64C117.372 33.192 117.444 32.72 117.444 32.224V31.408H116.628ZM117.444 30.112V29.824C117.444 27.888 116.484 26.92 114.564 26.92C113.252 26.92 112.108 27.36 111.132 28.24L110.172 27.112C111.228 26.024 112.812 25.48 114.924 25.48C115.468 25.48 115.988 25.56 116.484 25.72C116.996 25.88 117.436 26.128 117.804 26.464C118.172 26.784 118.468 27.192 118.692 27.688C118.916 28.184 119.028 28.776 119.028 29.464V34.48C119.028 34.912 119.044 35.368 119.076 35.848C119.124 36.312 119.172 36.696 119.22 37H117.684C117.636 36.728 117.596 36.432 117.564 36.112C117.548 35.792 117.54 35.48 117.54 35.176H117.492C117.028 35.928 116.476 36.472 115.836 36.808C115.212 37.128 114.444 37.288 113.532 37.288C113.036 37.288 112.556 37.216 112.092 37.072C111.628 36.944 111.212 36.744 110.844 36.472C110.492 36.184 110.204 35.84 109.98 35.44C109.772 35.024 109.668 34.544 109.668 34C109.668 33.088 109.9 32.376 110.364 31.864C110.844 31.336 111.436 30.944 112.14 30.688C112.86 30.432 113.62 30.272 114.42 30.208C115.236 30.144 115.98 30.112 116.652 30.112H117.444ZM128.497 27.208H125.257V33.832C125.257 34.248 125.297 34.592 125.377 34.864C125.457 35.12 125.569 35.32 125.713 35.464C125.857 35.608 126.025 35.712 126.217 35.776C126.425 35.824 126.649 35.848 126.889 35.848C127.161 35.848 127.441 35.808 127.729 35.728C128.017 35.648 128.281 35.544 128.521 35.416L128.593 36.88C128.001 37.152 127.289 37.288 126.457 37.288C126.153 37.288 125.833 37.248 125.497 37.168C125.177 37.088 124.881 36.936 124.609 36.712C124.337 36.488 124.113 36.184 123.937 35.8C123.761 35.416 123.673 34.912 123.673 34.288V27.208H121.297V25.768H123.673V22.6H125.257V25.768H128.497V27.208ZM139.394 30.52C139.394 29.448 139.074 28.584 138.434 27.928C137.794 27.256 136.898 26.92 135.746 26.92C135.234 26.92 134.738 27.024 134.258 27.232C133.778 27.424 133.354 27.688 132.986 28.024C132.634 28.36 132.346 28.744 132.122 29.176C131.914 29.608 131.81 30.056 131.81 30.52H139.394ZM131.762 31.816C131.81 32.376 131.946 32.904 132.17 33.4C132.394 33.896 132.69 34.328 133.058 34.696C133.426 35.048 133.85 35.328 134.33 35.536C134.81 35.744 135.33 35.848 135.89 35.848C136.738 35.848 137.466 35.656 138.074 35.272C138.698 34.872 139.17 34.416 139.49 33.904L140.714 34.912C140.042 35.76 139.298 36.368 138.482 36.736C137.682 37.104 136.818 37.288 135.89 37.288C135.058 37.288 134.282 37.144 133.562 36.856C132.858 36.552 132.25 36.136 131.738 35.608C131.226 35.08 130.818 34.456 130.514 33.736C130.226 33.016 130.082 32.232 130.082 31.384C130.082 30.536 130.226 29.752 130.514 29.032C130.802 28.312 131.202 27.688 131.714 27.16C132.226 26.632 132.826 26.224 133.514 25.936C134.202 25.632 134.946 25.48 135.746 25.48C136.594 25.48 137.354 25.632 138.026 25.936C138.698 26.24 139.258 26.648 139.706 27.16C140.17 27.656 140.522 28.248 140.762 28.936C141.002 29.608 141.122 30.328 141.122 31.096V31.816H131.762Z" fill="white"/>
<path d="M87.0304 34.312L87.8624 34.8667L88.4004 34.0598L87.6103 33.4973L87.0304 34.312ZM85.9504 35.536L85.286 34.7886L85.279 34.7948L85.2721 34.8012L85.9504 35.536ZM84.5104 36.544L84.9576 37.4384L84.968 37.4332L84.9783 37.4278L84.5104 36.544ZM82.7344 37.192L82.4918 36.2218L82.486 36.2233L82.7344 37.192ZM77.2144 36.76L76.8288 37.6827L76.8336 37.6847L77.2144 36.76ZM74.4064 34.912L73.6922 35.6119L73.6992 35.6191L73.7064 35.6262L74.4064 34.912ZM72.5584 32.08L73.4831 31.6992L72.5584 32.08ZM72.5584 24.928L73.4831 25.3087L72.5584 24.928ZM74.4064 22.12L75.1135 22.8271V22.8271L74.4064 22.12ZM77.2144 20.248L76.8336 19.3233L76.8288 19.3253L77.2144 20.248ZM83.9104 20.2L84.2769 19.2696L83.9104 20.2ZM86.6224 22.264L87.2203 23.0655L88.041 22.4533L87.4096 21.6473L86.6224 22.264ZM85.1104 23.392L84.2708 23.9353L84.8515 24.8327L85.7083 24.1935L85.1104 23.392ZM84.3904 22.576L83.7236 23.3212V23.3212L84.3904 22.576ZM83.3344 21.856L82.8581 22.7353L82.8655 22.7393L82.873 22.7432L83.3344 21.856ZM82.0864 21.352L81.8117 22.3135V22.3135L82.0864 21.352ZM77.8144 21.76L77.3942 20.8525V20.8525L77.8144 21.76ZM75.6064 23.368L74.8648 22.697L74.856 22.707L75.6064 23.368ZM74.2384 25.72L75.1782 26.0617L75.1801 26.0563L74.2384 25.72ZM74.2384 31.312L73.2966 31.6483L73.2986 31.6537L74.2384 31.312ZM75.6064 33.64L74.8559 34.3011L74.8648 34.3109L75.6064 33.64ZM77.8144 35.248L78.2345 34.3405L77.8144 35.248ZM82.0624 35.728L81.8866 34.7436L81.8803 34.7447L82.0624 35.728ZM83.3584 35.32L82.9522 34.4062L82.9458 34.4091L82.9393 34.412L83.3584 35.32ZM84.5584 34.552L85.2146 35.3066L85.2169 35.3046L84.5584 34.552ZM85.6144 33.304L86.1943 32.4893L85.3416 31.8823L84.7741 32.7619L85.6144 33.304ZM86.1983 33.7573C85.9628 34.1106 85.6612 34.4551 85.286 34.7886L86.6147 36.2834C87.1035 35.8489 87.522 35.3774 87.8624 34.8667L86.1983 33.7573ZM85.2721 34.8012C84.9248 35.1218 84.5168 35.4091 84.0425 35.6602L84.9783 37.4278C85.5919 37.1029 86.144 36.7182 86.6287 36.2708L85.2721 34.8012ZM84.0632 35.6496C83.5897 35.8863 83.067 36.0781 82.4918 36.2219L82.9769 38.1621C83.6818 37.9859 84.3431 37.7457 84.9576 37.4384L84.0632 35.6496ZM82.486 36.2233C81.9503 36.3607 81.3703 36.432 80.7424 36.432V38.432C81.5225 38.432 82.2705 38.3433 82.9827 38.1607L82.486 36.2233ZM80.7424 36.432C79.5992 36.432 78.5536 36.23 77.5951 35.8353L76.8336 37.6847C78.0511 38.186 79.3576 38.432 80.7424 38.432V36.432ZM77.6 35.8373C76.6406 35.4364 75.8123 34.8897 75.1063 34.1978L73.7064 35.6262C74.6004 36.5023 75.6442 37.1876 76.8288 37.6827L77.6 35.8373ZM75.1206 34.2121C74.4311 33.5085 73.8846 32.6744 73.4831 31.6992L71.6337 32.4607C72.1282 33.6616 72.8136 34.7155 73.6922 35.6119L75.1206 34.2121ZM73.4831 31.6992C73.0896 30.7437 72.8864 29.6827 72.8864 28.504H70.8864C70.8864 29.9173 71.1311 31.2403 71.6337 32.4607L73.4831 31.6992ZM72.8864 28.504C72.8864 27.3253 73.0896 26.2643 73.4831 25.3087L71.6337 24.5472C71.1311 25.7677 70.8864 27.0907 70.8864 28.504H72.8864ZM73.4831 25.3087C73.8839 24.3353 74.4285 23.5121 75.1135 22.8271L73.6993 21.4129C72.8163 22.2959 72.1288 23.3447 71.6337 24.5472L73.4831 25.3087ZM75.1135 22.8271C75.8189 22.1217 76.6448 21.5698 77.6 21.1707L76.8288 19.3253C75.6399 19.8222 74.5939 20.5183 73.6993 21.4129L75.1135 22.8271ZM77.5951 21.1727C78.5536 20.778 79.5992 20.576 80.7424 20.576V18.576C79.3576 18.576 78.0511 18.822 76.8336 19.3233L77.5951 21.1727ZM80.7424 20.576C81.6638 20.576 82.5958 20.7569 83.5439 21.1304L84.2769 19.2696C83.113 18.8111 81.933 18.576 80.7424 18.576V20.576ZM83.5439 21.1304C84.4219 21.4763 85.1845 22.05 85.8352 22.8807L87.4096 21.6473C86.5563 20.558 85.5109 19.7557 84.2769 19.2696L83.5439 21.1304ZM86.0244 21.4625L84.5124 22.5905L85.7083 24.1935L87.2203 23.0655L86.0244 21.4625ZM85.9499 22.8487C85.715 22.4857 85.4112 22.1475 85.0572 21.8308L83.7236 23.3212C83.9776 23.5485 84.1537 23.7543 84.2708 23.9353L85.9499 22.8487ZM85.0572 21.8308C84.6847 21.4975 84.2622 21.2113 83.7957 20.9688L82.873 22.7432C83.2066 22.9167 83.488 23.1105 83.7236 23.3212L85.0572 21.8308ZM83.8107 20.9767C83.3586 20.7318 82.8744 20.5371 82.3611 20.3905L81.8117 22.3135C82.1943 22.4229 82.5422 22.5642 82.8581 22.7353L83.8107 20.9767ZM82.3611 20.3905C81.8273 20.238 81.287 20.16 80.7424 20.16V22.16C81.0938 22.16 81.4494 22.21 81.8117 22.3135L82.3611 20.3905ZM80.7424 20.16C79.53 20.16 78.4075 20.3834 77.3942 20.8525L78.2345 22.6675C78.9493 22.3366 79.7788 22.16 80.7424 22.16V20.16ZM77.3942 20.8525C76.4146 21.3061 75.5675 21.9204 74.8648 22.6971L76.3479 24.0389C76.8612 23.4716 77.4862 23.0139 78.2345 22.6675L77.3942 20.8525ZM74.856 22.707C74.1751 23.4799 73.6566 24.3758 73.2966 25.3837L75.1801 26.0563C75.4602 25.2722 75.8537 24.6001 76.3567 24.029L74.856 22.707ZM73.2986 25.3783C72.9371 26.3724 72.7584 27.4164 72.7584 28.504H74.7584C74.7584 27.6396 74.8997 26.8276 75.1782 26.0617L73.2986 25.3783ZM72.7584 28.504C72.7584 29.5916 72.9371 30.6416 73.2966 31.6483L75.1801 30.9757C74.8997 30.1904 74.7584 29.3684 74.7584 28.504H72.7584ZM73.2986 31.6537C73.6593 32.6456 74.1778 33.5311 74.856 34.301L76.3567 32.979C75.851 32.4049 75.4575 31.7384 75.1782 30.9703L73.2986 31.6537ZM74.8648 34.3109C75.5675 35.0876 76.4146 35.7019 77.3942 36.1555L78.2345 34.3405C77.4862 33.9941 76.8612 33.5364 76.3479 32.9691L74.8648 34.3109ZM77.3942 36.1555C78.4075 36.6246 79.53 36.848 80.7424 36.848V34.848C79.7788 34.848 78.9493 34.6714 78.2345 34.3405L77.3942 36.1555ZM80.7424 36.848C81.2503 36.848 81.7512 36.8026 82.2445 36.7113L81.8803 34.7447C81.5095 34.8134 81.1305 34.848 80.7424 34.848V36.848ZM82.2382 36.7124C82.7708 36.6173 83.2845 36.4555 83.7774 36.228L82.9393 34.412C82.6003 34.5685 82.25 34.6787 81.8866 34.7436L82.2382 36.7124ZM83.7645 36.2338C84.2902 36.0002 84.774 35.6897 85.2146 35.3066L83.9022 33.7974C83.6068 34.0543 83.2906 34.2558 82.9522 34.4062L83.7645 36.2338ZM85.2169 35.3046C85.681 34.8985 86.0919 34.4084 86.4547 33.8461L84.7741 32.7619C84.4969 33.1916 84.2038 33.5335 83.8999 33.7994L85.2169 35.3046ZM85.0344 34.1187L86.4504 35.1267L87.6103 33.4973L86.1943 32.4893L85.0344 34.1187ZM89.4808 27.76L88.4813 27.7912L88.4818 27.8068L88.4828 27.8224L89.4808 27.76ZM89.4328 25.768V24.768H88.413L88.433 25.7876L89.4328 25.768ZM90.9928 25.768H91.9928V24.768H90.9928V25.768ZM90.9928 27.856H89.9928V28.856H90.9928V27.856ZM91.0408 27.856V28.856H91.7381L91.9792 28.2017L91.0408 27.856ZM91.5208 26.992L92.3152 27.5994L92.3235 27.5886L92.3315 27.5775L91.5208 26.992ZM92.2648 26.224L91.6716 25.4189L91.6611 25.4267L91.6509 25.4346L92.2648 26.224ZM93.2968 25.696L93.613 26.6447L93.6243 26.6409L93.6355 26.6369L93.2968 25.696ZM95.8168 25.624L96.7974 25.8201L96.9782 24.9158L96.0915 24.6625L95.8168 25.624ZM95.5048 27.184L95.1458 28.1173L96.2528 28.5431L96.4854 27.3801L95.5048 27.184ZM93.0328 27.424L93.4931 28.3118L93.5059 28.3051L93.5185 28.2982L93.0328 27.424ZM91.9528 28.312L92.7268 28.9452L92.7336 28.9368L92.7403 28.9283L91.9528 28.312ZM91.3048 29.464L90.3598 29.1369L90.3541 29.1533L90.349 29.1699L91.3048 29.464ZM91.1128 37V38H92.1128V37H91.1128ZM89.5288 37H88.5288V38H89.5288V37ZM90.5288 29.272C90.5288 28.7545 90.5121 28.2297 90.4789 27.6976L88.4828 27.8224C88.5135 28.3143 88.5288 28.7975 88.5288 29.272H90.5288ZM90.4803 27.7288C90.4645 27.2222 90.4486 26.5625 90.4326 25.7484L88.433 25.7876C88.449 26.6055 88.4651 27.2738 88.4813 27.7912L90.4803 27.7288ZM89.4328 26.768H90.9928V24.768H89.4328V26.768ZM89.9928 25.768V27.856H91.9928V25.768H89.9928ZM90.9928 28.856H91.0408V26.856H90.9928V28.856ZM91.9792 28.2017C92.0546 27.9969 92.1645 27.7964 92.3152 27.5994L90.7265 26.3846C90.4611 26.7316 90.251 27.1071 90.1025 27.5103L91.9792 28.2017ZM92.3315 27.5775C92.4824 27.3685 92.6636 27.1807 92.8788 27.0134L91.6509 25.4346C91.29 25.7153 90.9752 26.0395 90.7101 26.4065L92.3315 27.5775ZM92.858 27.0291C93.0719 26.8714 93.3212 26.742 93.613 26.6447L92.9806 24.7473C92.5045 24.906 92.0657 25.1286 91.6716 25.4189L92.858 27.0291ZM93.6355 26.6369C93.9104 26.5379 94.2414 26.48 94.6408 26.48V24.48C94.0482 24.48 93.4832 24.5661 92.9581 24.7551L93.6355 26.6369ZM94.6408 26.48C95.0206 26.48 95.3165 26.5211 95.5421 26.5855L96.0915 24.6625C95.6452 24.5349 95.157 24.48 94.6408 24.48V26.48ZM94.8362 25.4279L94.5242 26.9879L96.4854 27.3801L96.7974 25.8201L94.8362 25.4279ZM95.8638 26.2507C95.484 26.1046 95.0339 26.064 94.5928 26.064V28.064C94.9518 28.064 95.1096 28.1034 95.1458 28.1173L95.8638 26.2507ZM94.5928 26.064C93.8536 26.064 93.1583 26.2103 92.5472 26.5498L93.5185 28.2982C93.7714 28.1577 94.116 28.064 94.5928 28.064V26.064ZM92.5725 26.5362C92.0186 26.8234 91.5453 27.2101 91.1653 27.6957L92.7403 28.9283C92.9363 28.6779 93.183 28.4726 93.4931 28.3118L92.5725 26.5362ZM91.1789 27.6788C90.8188 28.1189 90.5436 28.6059 90.3598 29.1369L92.2498 29.7911C92.354 29.4901 92.5109 29.2091 92.7268 28.9452L91.1789 27.6788ZM90.349 29.1699C90.1956 29.6687 90.1128 30.168 90.1128 30.664H92.1128C92.1128 30.392 92.1581 30.0913 92.2606 29.7581L90.349 29.1699ZM90.1128 30.664V37H92.1128V30.664H90.1128ZM91.1128 36H89.5288V38H91.1128V36ZM90.5288 37V29.272H88.5288V37H90.5288ZM105.644 30.52V31.52H106.644V30.52H105.644ZM104.684 27.928L103.959 28.6177L103.968 28.6263L104.684 27.928ZM100.508 27.232L100.879 28.1605L100.892 28.1552L100.905 28.1496L100.508 27.232ZM99.2357 28.024L98.5614 27.2855L98.5532 27.293L98.5452 27.3006L99.2357 28.024ZM98.3717 29.176L97.4839 28.7157L97.4771 28.7288L97.4707 28.7422L98.3717 29.176ZM98.0597 30.52H97.0597V31.52H98.0597V30.52ZM98.0117 31.816V30.816H96.9223L97.0153 31.9014L98.0117 31.816ZM99.3077 34.696L98.6006 35.4031L98.6084 35.411L98.6165 35.4186L99.3077 34.696ZM100.58 35.536L100.977 34.6184L100.58 35.536ZM104.324 35.272L104.858 36.1175L104.863 36.1139L104.324 35.272ZM105.74 33.904L106.375 33.1321L105.496 32.4076L104.892 33.374L105.74 33.904ZM106.964 34.912L107.747 35.5331L108.357 34.7639L107.599 34.1401L106.964 34.912ZM104.732 36.736L104.321 35.8244L104.314 35.8275L104.732 36.736ZM99.8117 36.856L99.4153 37.7741L99.4277 37.7794L99.4403 37.7845L99.8117 36.856ZM97.9877 35.608L98.7056 34.9119L97.9877 35.608ZM96.7637 33.736L95.8352 34.1074L95.8387 34.1162L95.8424 34.125L96.7637 33.736ZM96.7637 29.032L95.8352 28.6606L96.7637 29.032ZM97.9637 27.16L97.2458 26.4639L97.9637 27.16ZM99.7637 25.936L100.15 26.8584L100.159 26.8547L100.168 26.8507L99.7637 25.936ZM104.276 25.936L103.864 26.8471L104.276 25.936ZM105.956 27.16L105.203 27.8185L105.214 27.831L105.225 27.8432L105.956 27.16ZM107.012 28.936L106.067 29.2654L106.07 29.2723L107.012 28.936ZM107.372 31.816V32.816H108.372V31.816H107.372ZM106.644 30.52C106.644 29.2346 106.252 28.104 105.399 27.2297L103.968 28.6263C104.395 29.064 104.644 29.6614 104.644 30.52H106.644ZM105.408 27.2383C104.535 26.3223 103.351 25.92 101.996 25.92V27.92C102.944 27.92 103.552 28.1897 103.96 28.6177L105.408 27.2383ZM101.996 25.92C101.344 25.92 100.713 26.0533 100.11 26.3144L100.905 28.1496C101.263 27.9947 101.623 27.92 101.996 27.92V25.92ZM100.136 26.3035C99.549 26.5384 99.0215 26.8655 98.5614 27.2855L99.91 28.7625C100.186 28.5105 100.506 28.3096 100.879 28.1605L100.136 26.3035ZM98.5452 27.3006C98.1134 27.7128 97.7587 28.1857 97.4839 28.7157L99.2594 29.6363C99.4326 29.3023 99.654 29.0072 99.9262 28.7474L98.5452 27.3006ZM97.4707 28.7422C97.1998 29.3049 97.0597 29.9007 97.0597 30.52H99.0597C99.0597 30.2113 99.1276 29.9111 99.2727 29.6098L97.4707 28.7422ZM98.0597 31.52H105.644V29.52H98.0597V31.52ZM97.0153 31.9014C97.0727 32.5704 97.2362 33.2091 97.5083 33.8116L99.3311 32.9884C99.1552 32.5989 99.0467 32.1816 99.008 31.7306L97.0153 31.9014ZM97.5083 33.8116C97.7797 34.4125 98.1433 34.9459 98.6006 35.4031L100.015 33.9889C99.736 33.7101 99.5077 33.3795 99.3311 32.9884L97.5083 33.8116ZM98.6165 35.4186C99.0724 35.8547 99.5965 36.1998 100.182 36.4536L100.977 34.6184C100.603 34.4562 100.279 34.2413 99.9989 33.9734L98.6165 35.4186ZM100.182 36.4536C100.796 36.7197 101.453 36.848 102.14 36.848V34.848C101.707 34.848 101.323 34.7683 100.977 34.6184L100.182 36.4536ZM102.14 36.848C103.142 36.848 104.063 36.6193 104.858 36.1175L103.79 34.4265C103.368 34.6927 102.833 34.848 102.14 34.848V36.848ZM104.863 36.1139C105.584 35.6518 106.173 35.0967 106.588 34.434L104.892 33.374C104.666 33.7353 104.311 34.0922 103.784 34.4301L104.863 36.1139ZM105.104 34.6759L106.328 35.6839L107.599 34.1401L106.375 33.1321L105.104 34.6759ZM106.18 34.2909C105.587 35.0396 104.964 35.5344 104.321 35.8244L105.143 37.6476C106.132 37.2016 106.997 36.4804 107.747 35.5331L106.18 34.2909ZM104.314 35.8275C103.652 36.132 102.931 36.288 102.14 36.288V38.288C103.204 38.288 104.211 38.076 105.15 37.6445L104.314 35.8275ZM102.14 36.288C101.426 36.288 100.777 36.1649 100.183 35.9275L99.4403 37.7845C100.287 38.1231 101.19 38.288 102.14 38.288V36.288ZM100.208 35.9379C99.6196 35.6838 99.1222 35.3415 98.7056 34.9119L97.2698 36.3041C97.8772 36.9305 98.5958 37.4202 99.4153 37.7741L100.208 35.9379ZM98.7056 34.9119C98.2851 34.4782 97.9438 33.9601 97.6849 33.347L95.8424 34.125C96.1916 34.9519 96.6663 35.6818 97.2698 36.3041L98.7056 34.9119ZM97.6922 33.3646C97.4557 32.7733 97.3317 32.1167 97.3317 31.384H95.3317C95.3317 32.3473 95.4957 33.2587 95.8352 34.1074L97.6922 33.3646ZM97.3317 31.384C97.3317 30.6513 97.4557 29.9947 97.6922 29.4034L95.8352 28.6606C95.4957 29.5093 95.3317 30.4207 95.3317 31.384H97.3317ZM97.6922 29.4034C97.9345 28.7976 98.2651 28.2856 98.6816 27.8561L97.2458 26.4639C96.6382 27.0904 96.1689 27.8264 95.8352 28.6606L97.6922 29.4034ZM98.6816 27.8561C99.0981 27.4266 99.5848 27.095 100.15 26.8584L99.3775 25.0136C98.5666 25.353 97.8533 25.8374 97.2458 26.4639L98.6816 27.8561ZM100.168 26.8507C100.721 26.6065 101.326 26.48 101.996 26.48V24.48C101.065 24.48 100.183 24.6575 99.3595 25.0213L100.168 26.8507ZM101.996 26.48C102.723 26.48 103.339 26.6098 103.864 26.8471L104.688 25.0249C103.868 24.6542 102.965 24.48 101.996 24.48V26.48ZM103.864 26.8471C104.416 27.0972 104.857 27.4229 105.203 27.8185L106.708 26.5015C106.158 25.8731 105.479 25.3828 104.688 25.0249L103.864 26.8471ZM105.225 27.8432C105.587 28.2302 105.87 28.6992 106.067 29.2654L107.956 28.6066C107.673 27.7968 107.252 27.0818 106.686 26.4768L105.225 27.8432ZM106.07 29.2723C106.269 29.8284 106.372 30.4339 106.372 31.096H108.372C108.372 30.2221 108.235 29.3876 107.953 28.5997L106.07 29.2723ZM106.372 31.096V31.816H108.372V31.096H106.372ZM107.372 30.816H98.0117V32.816H107.372V30.816ZM115.116 31.48L115.17 32.4785L115.182 32.4779L115.194 32.4769L115.116 31.48ZM113.388 31.768L113.644 32.7347L113.653 32.7322L113.662 32.7295L113.388 31.768ZM111.972 32.464L111.347 31.6831L111.339 31.6894L111.331 31.6958L111.972 32.464ZM111.612 34.744L110.728 35.2119L110.745 35.2436L110.764 35.274L111.612 34.744ZM112.236 35.392L111.669 36.216L111.687 36.2284L111.706 36.24L112.236 35.392ZM113.076 35.752L112.821 36.7191L112.85 36.7267L112.88 36.7326L113.076 35.752ZM115.524 35.56L115.117 34.6462L115.111 34.6491L115.105 34.652L115.524 35.56ZM116.604 34.792L117.347 35.461L117.355 35.452L117.363 35.4428L116.604 34.792ZM117.228 33.64L116.276 33.334L116.272 33.3449L116.269 33.3559L117.228 33.64ZM117.444 31.408H118.444V30.408H117.444V31.408ZM117.444 30.112V31.112H118.444V30.112H117.444ZM111.132 28.24L110.37 28.8881L111.037 29.6718L111.801 28.9827L111.132 28.24ZM110.172 27.112L109.454 26.4155L108.821 27.0678L109.41 27.7601L110.172 27.112ZM116.484 25.72L116.177 26.6717L116.185 26.6745L116.484 25.72ZM117.804 26.464L117.129 27.2025L117.138 27.2107L117.147 27.2186L117.804 26.464ZM118.692 27.688L117.78 28.0996L118.692 27.688ZM119.076 35.848L118.078 35.9145L118.079 35.9327L118.081 35.9509L119.076 35.848ZM119.22 37V38H120.39L120.207 36.844L119.22 37ZM117.684 37L116.699 37.1738L116.845 38H117.684V37ZM117.564 36.112L116.565 36.1619L116.566 36.1868L116.569 36.2115L117.564 36.112ZM117.54 35.176H118.54V34.176H117.54V35.176ZM117.492 35.176V34.176H116.934L116.641 34.6509L117.492 35.176ZM115.836 36.808L116.292 37.6979L116.3 37.6934L115.836 36.808ZM112.092 37.072L112.388 36.1169L112.373 36.1122L112.358 36.108L112.092 37.072ZM110.844 36.472L110.21 37.246L110.229 37.2615L110.249 37.2762L110.844 36.472ZM109.98 35.44L109.085 35.8872L109.096 35.9082L109.107 35.9286L109.98 35.44ZM110.364 31.864L109.624 31.1913L109.623 31.1925L110.364 31.864ZM112.14 30.688L111.805 29.7458L111.798 29.7482L112.14 30.688ZM114.42 30.208L114.341 29.2111L114.34 29.2112L114.42 30.208ZM116.628 30.408C116.192 30.408 115.659 30.434 115.037 30.4831L115.194 32.4769C115.788 32.43 116.264 32.408 116.628 32.408V30.408ZM115.062 30.4815C114.396 30.5174 113.746 30.6255 113.113 30.8065L113.662 32.7295C114.149 32.5905 114.651 32.5066 115.17 32.4785L115.062 30.4815ZM113.132 30.8013C112.467 30.9774 111.866 31.268 111.347 31.6831L112.596 33.2449C112.877 33.02 113.221 32.8466 113.644 32.7347L113.132 30.8013ZM111.331 31.6958C110.69 32.2301 110.396 32.9674 110.396 33.784H112.396C112.396 33.4806 112.485 33.3379 112.612 33.2322L111.331 31.6958ZM110.396 33.784C110.396 34.2833 110.494 34.7701 110.728 35.2119L112.495 34.2761C112.441 34.1739 112.396 34.0207 112.396 33.784H110.396ZM110.764 35.274C110.998 35.6497 111.303 35.9647 111.669 36.216L112.802 34.568C112.656 34.4673 112.545 34.3503 112.46 34.214L110.764 35.274ZM111.706 36.24C112.05 36.4555 112.424 36.6145 112.821 36.7191L113.33 34.7849C113.119 34.7295 112.933 34.6485 112.766 34.544L111.706 36.24ZM112.88 36.7326C113.263 36.8092 113.648 36.848 114.036 36.848V34.848C113.783 34.848 113.528 34.8228 113.272 34.7714L112.88 36.7326ZM114.036 36.848C114.72 36.848 115.366 36.7341 115.943 36.468L115.105 34.652C114.849 34.7699 114.503 34.848 114.036 34.848V36.848ZM115.93 36.4738C116.477 36.2304 116.956 35.8952 117.347 35.461L115.86 34.123C115.675 34.3288 115.434 34.5056 115.117 34.6462L115.93 36.4738ZM117.363 35.4428C117.744 34.998 118.019 34.4885 118.186 33.9241L116.269 33.3559C116.18 33.6555 116.039 33.914 115.844 34.1412L117.363 35.4428ZM118.18 33.946C118.357 33.3939 118.444 32.8182 118.444 32.224H116.444C116.444 32.6218 116.386 32.9901 116.276 33.334L118.18 33.946ZM118.444 32.224V31.408H116.444V32.224H118.444ZM117.444 30.408H116.628V32.408H117.444V30.408ZM118.444 30.112V29.824H116.444V30.112H118.444ZM118.444 29.824C118.444 28.7039 118.166 27.6798 117.434 26.9418C116.7 26.2023 115.68 25.92 114.564 25.92V27.92C115.367 27.92 115.787 28.1217 116.014 28.3502C116.242 28.5802 116.444 29.0081 116.444 29.824H118.444ZM114.564 25.92C113.004 25.92 111.621 26.452 110.462 27.4973L111.801 28.9827C112.594 28.268 113.499 27.92 114.564 27.92V25.92ZM111.893 27.5919L110.933 26.4639L109.41 27.7601L110.37 28.8881L111.893 27.5919ZM110.889 27.8085C111.693 26.9806 112.973 26.48 114.924 26.48V24.48C112.65 24.48 110.763 25.0674 109.454 26.4155L110.889 27.8085ZM114.924 26.48C115.368 26.48 115.784 26.5451 116.177 26.6717L116.791 24.7683C116.191 24.5749 115.567 24.48 114.924 24.48V26.48ZM116.185 26.6745C116.569 26.7942 116.877 26.9725 117.129 27.2025L118.478 25.7255C117.994 25.2835 117.423 24.9658 116.782 24.7655L116.185 26.6745ZM117.147 27.2186C117.395 27.4336 117.609 27.7197 117.78 28.0996L119.603 27.2764C119.327 26.6643 118.949 26.1344 118.46 25.7094L117.147 27.2186ZM117.78 28.0996C117.933 28.4368 118.028 28.8817 118.028 29.464H120.028C120.028 28.6703 119.899 27.9312 119.603 27.2764L117.78 28.0996ZM118.028 29.464V34.48H120.028V29.464H118.028ZM118.028 34.48C118.028 34.9365 118.045 35.4148 118.078 35.9145L120.073 35.7815C120.043 35.3212 120.028 34.8875 120.028 34.48H118.028ZM118.081 35.9509C118.13 36.4246 118.18 36.8279 118.232 37.156L120.207 36.844C120.163 36.5641 120.117 36.1994 120.07 35.7451L118.081 35.9509ZM119.22 36H117.684V38H119.22V36ZM118.668 36.8262C118.625 36.5824 118.589 36.3115 118.559 36.0125L116.569 36.2115C116.603 36.5525 116.646 36.8736 116.699 37.1738L118.668 36.8262ZM118.562 36.0621C118.547 35.7578 118.54 35.4625 118.54 35.176H116.54C116.54 35.4975 116.548 35.8262 116.565 36.1619L118.562 36.0621ZM117.54 34.176H117.492V36.176H117.54V34.176ZM116.641 34.6509C116.25 35.2842 115.82 35.6866 115.371 35.9226L116.3 37.6934C117.131 37.2574 117.805 36.5718 118.343 35.7011L116.641 34.6509ZM115.379 35.9182C114.932 36.1473 114.331 36.288 113.532 36.288V38.288C114.556 38.288 115.491 38.1087 116.292 37.6978L115.379 35.9182ZM113.532 36.288C113.134 36.288 112.754 36.2305 112.388 36.1169L111.795 38.0271C112.357 38.2015 112.937 38.288 113.532 38.288V36.288ZM112.358 36.108C112.006 36.0109 111.702 35.8631 111.438 35.6678L110.249 37.2762C110.721 37.6249 111.25 37.8771 111.826 38.036L112.358 36.108ZM111.477 35.698C111.223 35.49 111.015 35.243 110.852 34.9514L109.107 35.9286C109.392 36.437 109.761 36.878 110.21 37.246L111.477 35.698ZM110.874 34.9928C110.746 34.7374 110.668 34.415 110.668 34H108.668C108.668 34.673 108.797 35.3106 109.085 35.8872L110.874 34.9928ZM110.668 34C110.668 33.2551 110.855 32.8112 111.105 32.5355L109.623 31.1925C108.944 31.9408 108.668 32.9209 108.668 34H110.668ZM111.104 32.5367C111.469 32.1347 111.922 31.8312 112.481 31.6278L111.798 29.7482C110.949 30.0568 110.218 30.5373 109.624 31.1913L111.104 32.5367ZM112.475 31.6302C113.108 31.4049 113.782 31.2622 114.499 31.2048L114.34 29.2112C113.457 29.2818 112.611 29.4591 111.805 29.7458L112.475 31.6302ZM114.498 31.2049C115.293 31.1426 116.011 31.112 116.652 31.112V29.112C115.949 29.112 115.178 29.1454 114.341 29.2111L114.498 31.2049ZM116.652 31.112H117.444V29.112H116.652V31.112ZM128.497 27.208V28.208H129.497V27.208H128.497ZM125.257 27.208V26.208H124.257V27.208H125.257ZM125.377 34.864L124.418 35.1462L124.42 35.1542L124.422 35.1623L125.377 34.864ZM125.713 35.464L125.006 36.1711L125.713 35.464ZM126.217 35.776L125.901 36.7247L125.946 36.7397L125.992 36.7504L126.217 35.776ZM127.729 35.728L127.461 34.7645L127.729 35.728ZM128.521 35.416L129.52 35.3669L129.442 33.7913L128.05 34.5336L128.521 35.416ZM128.593 36.88L129.01 37.7887L129.625 37.5063L129.592 36.8309L128.593 36.88ZM125.497 37.168L125.254 38.1382L125.265 38.1408L125.497 37.168ZM124.609 36.712L123.973 37.4839L124.609 36.712ZM123.673 27.208H124.673V26.208H123.673V27.208ZM121.297 27.208H120.297V28.208H121.297V27.208ZM121.297 25.768V24.768H120.297V25.768H121.297ZM123.673 25.768V26.768H124.673V25.768H123.673ZM123.673 22.6V21.6H122.673V22.6H123.673ZM125.257 22.6H126.257V21.6H125.257V22.6ZM125.257 25.768H124.257V26.768H125.257V25.768ZM128.497 25.768H129.497V24.768H128.497V25.768ZM128.497 26.208H125.257V28.208H128.497V26.208ZM124.257 27.208V33.832H126.257V27.208H124.257ZM124.257 33.832C124.257 34.3033 124.301 34.7506 124.418 35.1462L126.336 34.5818C126.293 34.4334 126.257 34.1927 126.257 33.832H124.257ZM124.422 35.1623C124.536 35.5254 124.717 35.8824 125.006 36.1711L126.42 34.7569C126.421 34.7576 126.378 34.7146 126.331 34.5657L124.422 35.1623ZM125.006 36.1711C125.259 36.4242 125.56 36.6113 125.901 36.7247L126.533 34.8273C126.489 34.8127 126.455 34.7918 126.42 34.7569L125.006 36.1711ZM125.992 36.7504C126.282 36.8174 126.582 36.848 126.889 36.848V34.848C126.715 34.848 126.568 34.8306 126.442 34.8016L125.992 36.7504ZM126.889 36.848C127.26 36.848 127.63 36.7934 127.997 36.6915L127.461 34.7645C127.252 34.8226 127.062 34.848 126.889 34.848V36.848ZM127.997 36.6915C128.348 36.5939 128.681 36.4639 128.992 36.2984L128.05 34.5336C127.881 34.6241 127.686 34.7021 127.461 34.7645L127.997 36.6915ZM127.522 35.4651L127.594 36.9291L129.592 36.8309L129.52 35.3669L127.522 35.4651ZM128.175 35.9713C127.745 36.1689 127.183 36.288 126.457 36.288V38.288C127.395 38.288 128.256 38.1351 129.01 37.7887L128.175 35.9713ZM126.457 36.288C126.241 36.288 125.999 36.2595 125.729 36.1952L125.265 38.1408C125.667 38.2365 126.065 38.288 126.457 38.288V36.288ZM125.739 36.1979C125.573 36.1563 125.41 36.0762 125.245 35.9401L123.973 37.4839C124.352 37.7958 124.781 38.0197 125.254 38.1381L125.739 36.1979ZM125.245 35.9401C125.11 35.8295 124.971 35.6568 124.846 35.3833L123.028 36.2167C123.255 36.7112 123.563 37.1465 123.973 37.4839L125.245 35.9401ZM124.846 35.3833C124.752 35.1772 124.673 34.831 124.673 34.288H122.673C122.673 34.993 122.77 35.6548 123.028 36.2167L124.846 35.3833ZM124.673 34.288V27.208H122.673V34.288H124.673ZM123.673 26.208H121.297V28.208H123.673V26.208ZM122.297 27.208V25.768H120.297V27.208H122.297ZM121.297 26.768H123.673V24.768H121.297V26.768ZM124.673 25.768V22.6H122.673V25.768H124.673ZM123.673 23.6H125.257V21.6H123.673V23.6ZM124.257 22.6V25.768H126.257V22.6H124.257ZM125.257 26.768H128.497V24.768H125.257V26.768ZM127.497 25.768V27.208H129.497V25.768H127.497ZM139.394 30.52V31.52H140.394V30.52H139.394ZM138.434 27.928L137.71 28.6177L137.718 28.6263L138.434 27.928ZM134.258 27.232L134.629 28.1605L134.642 28.1552L134.655 28.1496L134.258 27.232ZM132.986 28.024L132.311 27.2855L132.303 27.293L132.295 27.3006L132.986 28.024ZM132.122 29.176L131.234 28.7157L131.227 28.7288L131.221 28.7422L132.122 29.176ZM131.81 30.52H130.81V31.52H131.81V30.52ZM131.762 31.816V30.816H130.672L130.765 31.9014L131.762 31.816ZM133.058 34.696L132.351 35.4031L132.358 35.411L132.366 35.4186L133.058 34.696ZM134.33 35.536L134.727 34.6184L134.33 35.536ZM138.074 35.272L138.608 36.1175L138.613 36.1139L138.074 35.272ZM139.49 33.904L140.125 33.1321L139.246 32.4076L138.642 33.374L139.49 33.904ZM140.714 34.912L141.497 35.5331L142.107 34.7639L141.349 34.1401L140.714 34.912ZM138.482 36.736L138.071 35.8244L138.064 35.8275L138.482 36.736ZM133.562 36.856L133.165 37.7741L133.178 37.7794L133.19 37.7845L133.562 36.856ZM131.738 35.608L132.456 34.9119L131.738 35.608ZM130.514 33.736L129.585 34.1074L129.589 34.1162L129.592 34.125L130.514 33.736ZM130.514 29.032L129.585 28.6606L130.514 29.032ZM131.714 27.16L130.996 26.4639L131.714 27.16ZM133.514 25.936L133.9 26.8584L133.909 26.8547L133.918 26.8507L133.514 25.936ZM138.026 25.936L137.614 26.8471L138.026 25.936ZM139.706 27.16L138.953 27.8185L138.964 27.831L138.975 27.8432L139.706 27.16ZM140.762 28.936L139.817 29.2654L139.82 29.2723L140.762 28.936ZM141.122 31.816V32.816H142.122V31.816H141.122ZM140.394 30.52C140.394 29.2346 140.002 28.104 139.149 27.2297L137.718 28.6263C138.145 29.064 138.394 29.6614 138.394 30.52H140.394ZM139.158 27.2383C138.285 26.3223 137.101 25.92 135.746 25.92V27.92C136.694 27.92 137.302 28.1897 137.71 28.6177L139.158 27.2383ZM135.746 25.92C135.094 25.92 134.463 26.0533 133.86 26.3144L134.655 28.1496C135.013 27.9947 135.373 27.92 135.746 27.92V25.92ZM133.886 26.3035C133.299 26.5384 132.771 26.8655 132.311 27.2855L133.66 28.7625C133.936 28.5105 134.256 28.3096 134.629 28.1605L133.886 26.3035ZM132.295 27.3006C131.863 27.7128 131.509 28.1857 131.234 28.7157L133.009 29.6363C133.183 29.3023 133.404 29.0072 133.676 28.7474L132.295 27.3006ZM131.221 28.7422C130.95 29.3049 130.81 29.9007 130.81 30.52H132.81C132.81 30.2113 132.878 29.9111 133.023 29.6098L131.221 28.7422ZM131.81 31.52H139.394V29.52H131.81V31.52ZM130.765 31.9014C130.823 32.5704 130.986 33.2091 131.258 33.8116L133.081 32.9884C132.905 32.5989 132.797 32.1816 132.758 31.7306L130.765 31.9014ZM131.258 33.8116C131.53 34.4125 131.893 34.9459 132.351 35.4031L133.765 33.9889C133.486 33.7101 133.258 33.3795 133.081 32.9884L131.258 33.8116ZM132.366 35.4186C132.822 35.8547 133.346 36.1998 133.932 36.4536L134.727 34.6184C134.353 34.4562 134.029 34.2413 133.749 33.9734L132.366 35.4186ZM133.932 36.4536C134.546 36.7197 135.203 36.848 135.89 36.848V34.848C135.457 34.848 135.073 34.7683 134.727 34.6184L133.932 36.4536ZM135.89 36.848C136.892 36.848 137.813 36.6193 138.608 36.1175L137.54 34.4265C137.118 34.6927 136.583 34.848 135.89 34.848V36.848ZM138.613 36.1139C139.334 35.6518 139.923 35.0967 140.338 34.434L138.642 33.374C138.416 33.7353 138.061 34.0922 137.534 34.4301L138.613 36.1139ZM138.854 34.6759L140.078 35.6839L141.349 34.1401L140.125 33.1321L138.854 34.6759ZM139.93 34.2909C139.337 35.0396 138.714 35.5344 138.071 35.8244L138.893 37.6476C139.882 37.2016 140.747 36.4804 141.497 35.5331L139.93 34.2909ZM138.064 35.8275C137.402 36.132 136.681 36.288 135.89 36.288V38.288C136.954 38.288 137.962 38.076 138.9 37.6445L138.064 35.8275ZM135.89 36.288C135.176 36.288 134.527 36.1649 133.933 35.9275L133.19 37.7845C134.037 38.1231 134.94 38.288 135.89 38.288V36.288ZM133.958 35.9379C133.37 35.6838 132.872 35.3415 132.456 34.9119L131.02 36.3041C131.627 36.9305 132.346 37.4202 133.165 37.7741L133.958 35.9379ZM132.456 34.9119C132.035 34.4782 131.694 33.9601 131.435 33.347L129.592 34.125C129.942 34.9519 130.416 35.6818 131.02 36.3041L132.456 34.9119ZM131.442 33.3646C131.206 32.7733 131.082 32.1167 131.082 31.384H129.082C129.082 32.3473 129.246 33.2587 129.585 34.1074L131.442 33.3646ZM131.082 31.384C131.082 30.6513 131.206 29.9947 131.442 29.4034L129.585 28.6606C129.246 29.5093 129.082 30.4207 129.082 31.384H131.082ZM131.442 29.4034C131.684 28.7976 132.015 28.2856 132.432 27.8561L130.996 26.4639C130.388 27.0904 129.919 27.8264 129.585 28.6606L131.442 29.4034ZM132.432 27.8561C132.848 27.4266 133.335 27.095 133.9 26.8584L133.128 25.0136C132.317 25.353 131.603 25.8374 130.996 26.4639L132.432 27.8561ZM133.918 26.8507C134.471 26.6065 135.076 26.48 135.746 26.48V24.48C134.815 24.48 133.933 24.6575 133.11 25.0213L133.918 26.8507ZM135.746 26.48C136.473 26.48 137.089 26.6098 137.614 26.8471L138.438 25.0249C137.618 24.6542 136.715 24.48 135.746 24.48V26.48ZM137.614 26.8471C138.166 27.0972 138.607 27.4229 138.953 27.8185L140.458 26.5015C139.908 25.8731 139.229 25.3828 138.438 25.0249L137.614 26.8471ZM138.975 27.8432C139.337 28.2302 139.62 28.6992 139.817 29.2654L141.706 28.6066C141.423 27.7968 141.002 27.0818 140.436 26.4768L138.975 27.8432ZM139.82 29.2723C140.019 29.8284 140.122 30.4339 140.122 31.096H142.122C142.122 30.2221 141.985 29.3876 141.703 28.5997L139.82 29.2723ZM140.122 31.096V31.816H142.122V31.096H140.122ZM141.122 30.816H131.762V32.816H141.122V30.816Z" fill="white"/>
</svg>
