<svg width="213" height="60" viewBox="0 0 213 60" fill="none" xmlns="http://www.w3.org/2000/svg">
<path d="M1 30C1 13.4315 14.4315 0 31 0H183C199.569 0 213 13.4315 213 30C213 46.5685 199.569 60 183 60H31C14.4315 60 1 46.5685 1 30Z" fill="#006504"/>
<path d="M86.1349 33.52C86.2949 34.24 86.5909 34.808 87.0229 35.224C87.4549 35.64 88.0549 35.848 88.8229 35.848C89.4469 35.848 89.9509 35.728 90.3349 35.488C90.7349 35.232 91.0389 34.912 91.2469 34.528C91.4709 34.128 91.6229 33.68 91.7029 33.184C91.7829 32.672 91.8229 32.152 91.8229 31.624V20.008H93.5509V32.344C93.5509 32.92 93.4709 33.512 93.3109 34.12C93.1669 34.712 92.9029 35.256 92.5189 35.752C92.1509 36.232 91.6629 36.632 91.0549 36.952C90.4469 37.272 89.6869 37.432 88.7749 37.432C87.6069 37.432 86.6309 37.136 85.8469 36.544C85.0629 35.936 84.5749 35.048 84.3829 33.88L86.1349 33.52ZM106.977 31.384C106.977 30.76 106.873 30.176 106.665 29.632C106.473 29.088 106.193 28.616 105.825 28.216C105.457 27.816 105.009 27.504 104.481 27.28C103.969 27.04 103.385 26.92 102.729 26.92C102.073 26.92 101.481 27.04 100.953 27.28C100.441 27.504 100.001 27.816 99.633 28.216C99.281 28.616 99.001 29.088 98.793 29.632C98.601 30.176 98.505 30.76 98.505 31.384C98.505 32.008 98.601 32.592 98.793 33.136C99.001 33.68 99.281 34.152 99.633 34.552C100.001 34.952 100.441 35.272 100.953 35.512C101.481 35.736 102.073 35.848 102.729 35.848C103.385 35.848 103.969 35.736 104.481 35.512C105.009 35.272 105.457 34.952 105.825 34.552C106.193 34.152 106.473 33.68 106.665 33.136C106.873 32.592 106.977 32.008 106.977 31.384ZM108.705 31.384C108.705 32.232 108.553 33.016 108.249 33.736C107.961 34.456 107.553 35.08 107.025 35.608C106.497 36.136 105.865 36.552 105.129 36.856C104.409 37.144 103.609 37.288 102.729 37.288C101.865 37.288 101.065 37.144 100.329 36.856C99.609 36.552 98.985 36.136 98.457 35.608C97.929 35.08 97.513 34.456 97.209 33.736C96.921 33.016 96.777 32.232 96.777 31.384C96.777 30.536 96.921 29.752 97.209 29.032C97.513 28.312 97.929 27.688 98.457 27.16C98.985 26.632 99.609 26.224 100.329 25.936C101.065 25.632 101.865 25.48 102.729 25.48C103.609 25.48 104.409 25.632 105.129 25.936C105.865 26.224 106.497 26.632 107.025 27.16C107.553 27.688 107.961 28.312 108.249 29.032C108.553 29.752 108.705 30.536 108.705 31.384ZM113.884 21.448C113.884 21.784 113.764 22.064 113.524 22.288C113.284 22.496 113.02 22.6 112.732 22.6C112.444 22.6 112.18 22.496 111.94 22.288C111.7 22.064 111.58 21.784 111.58 21.448C111.58 21.112 111.7 20.84 111.94 20.632C112.18 20.408 112.444 20.296 112.732 20.296C113.02 20.296 113.284 20.408 113.524 20.632C113.764 20.84 113.884 21.112 113.884 21.448ZM113.524 37H111.94V25.768H113.524V37ZM118.857 25.768C118.889 26.072 118.905 26.376 118.905 26.68C118.921 26.968 118.929 27.264 118.929 27.568H118.977C119.153 27.264 119.377 26.984 119.649 26.728C119.921 26.472 120.225 26.256 120.561 26.08C120.897 25.888 121.249 25.744 121.617 25.648C122.001 25.536 122.377 25.48 122.745 25.48C124.185 25.48 125.249 25.864 125.937 26.632C126.625 27.384 126.969 28.464 126.969 29.872V37H125.385V30.784C125.385 29.536 125.169 28.584 124.737 27.928C124.305 27.256 123.505 26.92 122.337 26.92C122.257 26.92 122.033 26.952 121.665 27.016C121.297 27.08 120.905 27.256 120.489 27.544C120.089 27.832 119.729 28.264 119.409 28.84C119.089 29.416 118.929 30.216 118.929 31.24V37H117.345V28.24C117.345 27.936 117.329 27.552 117.297 27.088C117.281 26.624 117.257 26.184 117.225 25.768H118.857Z" fill="white"/>
<path d="M86.1349 33.52L87.1111 33.3031L86.8976 32.3424L85.9336 32.5405L86.1349 33.52ZM90.3349 35.488L90.8649 36.336L90.8739 36.3303L90.3349 35.488ZM91.2469 34.528L90.3743 34.0393L90.3676 34.0517L91.2469 34.528ZM91.7029 33.184L92.6901 33.3432L92.6909 33.3384L91.7029 33.184ZM91.8229 20.008V19.008H90.8229V20.008H91.8229ZM93.5509 20.008H94.5509V19.008H93.5509V20.008ZM93.3109 34.12L92.3438 33.8655L92.3414 33.8746L92.3392 33.8836L93.3109 34.12ZM92.5189 35.752L91.7281 35.1398L91.7253 35.1436L92.5189 35.752ZM91.0549 36.952L91.5206 37.8369L91.0549 36.952ZM85.8469 36.544L85.234 37.3343L85.2443 37.342L85.8469 36.544ZM84.3829 33.88L84.1816 32.9005L83.2402 33.0939L83.3961 34.0422L84.3829 33.88ZM85.1587 33.7369C85.3515 34.6045 85.7261 35.3635 86.3292 35.9443L87.7165 34.5037C87.4557 34.2525 87.2383 33.8755 87.1111 33.3031L85.1587 33.7369ZM86.3292 35.9443C86.9957 36.5861 87.8718 36.848 88.8229 36.848V34.848C88.238 34.848 87.914 34.6939 87.7165 34.5037L86.3292 35.9443ZM88.8229 36.848C89.5661 36.848 90.2726 36.7062 90.8649 36.336L89.8049 34.64C89.6291 34.7498 89.3276 34.848 88.8229 34.848V36.848ZM90.8739 36.3303C91.4037 35.9912 91.8306 35.5499 92.1262 35.0043L90.3676 34.0517C90.2471 34.2741 90.0661 34.4728 89.7958 34.6457L90.8739 36.3303ZM92.1194 35.0166C92.4059 34.505 92.5932 33.9438 92.6901 33.3432L90.7156 33.0248C90.6525 33.4162 90.5359 33.751 90.3744 34.0394L92.1194 35.0166ZM92.6909 33.3384C92.779 32.7743 92.8229 32.2027 92.8229 31.624H90.8229C90.8229 32.1013 90.7867 32.5697 90.7149 33.0296L92.6909 33.3384ZM92.8229 31.624V20.008H90.8229V31.624H92.8229ZM91.8229 21.008H93.5509V19.008H91.8229V21.008ZM92.5509 20.008V32.344H94.5509V20.008H92.5509ZM92.5509 32.344C92.5509 32.8267 92.4839 33.3331 92.3438 33.8655L94.2779 34.3745C94.4578 33.6909 94.5509 33.0133 94.5509 32.344H92.5509ZM92.3392 33.8836C92.2294 34.335 92.0287 34.7516 91.7281 35.1398L93.3096 36.3642C93.777 35.7604 94.1043 35.089 94.2825 34.3564L92.3392 33.8836ZM91.7253 35.1436C91.4565 35.4941 91.0865 35.8053 90.5891 36.0671L91.5206 37.8369C92.2392 37.4587 92.8452 36.9699 93.3125 36.3604L91.7253 35.1436ZM90.5891 36.0671C90.164 36.2908 89.5757 36.432 88.7749 36.432V38.432C89.7981 38.432 90.7298 38.2532 91.5206 37.8369L90.5891 36.0671ZM88.7749 36.432C87.7819 36.432 87.0289 36.1835 86.4495 35.746L85.2443 37.342C86.2329 38.0885 87.4318 38.432 88.7749 38.432V36.432ZM86.4597 35.7538C85.9125 35.3294 85.5291 34.6877 85.3696 33.7178L83.3961 34.0422C83.6207 35.4083 84.2132 36.5426 85.2341 37.3342L86.4597 35.7538ZM84.5842 34.8595L86.3362 34.4995L85.9336 32.5405L84.1816 32.9005L84.5842 34.8595ZM106.665 29.632L105.722 29.9648L105.726 29.977L105.731 29.9891L106.665 29.632ZM104.481 27.28L104.057 28.1855L104.073 28.1933L104.09 28.2006L104.481 27.28ZM100.953 27.28L101.354 28.1962L101.36 28.1933L101.367 28.1904L100.953 27.28ZM99.633 28.216L98.8971 27.5389L98.8896 27.5471L98.8823 27.5554L99.633 28.216ZM98.793 29.632L97.8589 29.2749L97.8543 29.287L97.85 29.2992L98.793 29.632ZM98.793 33.136L97.85 33.4688L97.8543 33.481L97.8589 33.4931L98.793 33.136ZM99.633 34.552L98.8823 35.2126L98.8896 35.2209L98.8971 35.2291L99.633 34.552ZM100.953 35.512L100.529 36.4175L100.545 36.4253L100.562 36.4326L100.953 35.512ZM104.481 35.512L104.882 36.4282L104.888 36.4253L104.895 36.4224L104.481 35.512ZM106.665 33.136L105.731 32.7789L105.726 32.791L105.722 32.8032L106.665 33.136ZM108.249 33.736L107.328 33.347L107.324 33.3558L107.321 33.3646L108.249 33.736ZM107.025 35.608L107.732 36.3151L107.025 35.608ZM105.129 36.856L105.5 37.7845L105.511 37.7803L105.129 36.856ZM100.329 36.856L99.94 37.7773L99.9522 37.7824L99.9646 37.7872L100.329 36.856ZM98.457 35.608L99.1641 34.9009L98.457 35.608ZM97.209 33.736L96.2805 34.1074L96.284 34.1162L96.2878 34.125L97.209 33.736ZM97.209 29.032L96.2878 28.643L96.284 28.6518L96.2805 28.6606L97.209 29.032ZM98.457 27.16L97.7499 26.4529L98.457 27.16ZM100.329 25.936L100.7 26.8645L100.711 26.8603L100.329 25.936ZM105.129 25.936L104.74 26.8572L104.752 26.8624L104.765 26.8672L105.129 25.936ZM107.025 27.16L107.732 26.4529L107.025 27.16ZM108.249 29.032L107.321 29.4034L107.324 29.4122L107.328 29.421L108.249 29.032ZM107.977 31.384C107.977 30.6467 107.854 29.9408 107.599 29.2749L105.731 29.9891C105.892 30.4112 105.977 30.8733 105.977 31.384H107.977ZM107.608 29.2992C107.374 28.6356 107.026 28.0445 106.561 27.5389L105.089 28.8931C105.36 29.1875 105.572 29.5404 105.722 29.9648L107.608 29.2992ZM106.561 27.5389C106.091 27.0283 105.523 26.6359 104.872 26.3594L104.09 28.2006C104.495 28.3721 104.823 28.6037 105.089 28.8931L106.561 27.5389ZM104.905 26.3745C104.241 26.0631 103.508 25.92 102.729 25.92V27.92C103.262 27.92 103.697 28.0169 104.057 28.1855L104.905 26.3745ZM102.729 25.92C101.949 25.92 101.213 26.0633 100.539 26.3696L101.367 28.1904C101.749 28.0167 102.197 27.92 102.729 27.92V25.92ZM100.552 26.3638C99.9168 26.6418 99.3617 27.034 98.8971 27.5389L100.369 28.8931C100.64 28.598 100.965 28.3662 101.354 28.1962L100.552 26.3638ZM98.8823 27.5554C98.4446 28.0528 98.1055 28.6299 97.8589 29.2749L99.7271 29.9891C99.8965 29.5461 100.117 29.1792 100.384 28.8766L98.8823 27.5554ZM97.85 29.2992C97.6173 29.9585 97.505 30.6559 97.505 31.384H99.505C99.505 30.8641 99.5847 30.3935 99.736 29.9648L97.85 29.2992ZM97.505 31.384C97.505 32.1121 97.6173 32.8095 97.85 33.4688L99.736 32.8032C99.5847 32.3745 99.505 31.9039 99.505 31.384H97.505ZM97.8589 33.4931C98.1055 34.1381 98.4446 34.7152 98.8823 35.2126L100.384 33.8914C100.117 33.5888 99.8965 33.2219 99.7271 32.7789L97.8589 33.4931ZM98.8971 35.2291C99.3566 35.7286 99.9037 36.1246 100.529 36.4175L101.377 34.6065C100.978 34.4194 100.645 34.1754 100.369 33.8749L98.8971 35.2291ZM100.562 36.4326C101.23 36.716 101.958 36.848 102.729 36.848V34.848C102.188 34.848 101.732 34.756 101.344 34.5914L100.562 36.4326ZM102.729 36.848C103.499 36.848 104.223 36.7162 104.882 36.4282L104.08 34.5958C103.715 34.7558 103.271 34.848 102.729 34.848V36.848ZM104.895 36.4224C105.536 36.1307 106.096 35.7341 106.561 35.2291L105.089 33.8749C104.818 34.1699 104.482 34.4133 104.067 34.6016L104.895 36.4224ZM106.561 35.2291C107.026 34.7235 107.374 34.1324 107.608 33.4688L105.722 32.8032C105.572 33.2276 105.36 33.5805 105.089 33.8749L106.561 35.2291ZM107.599 33.4931C107.854 32.8272 107.977 32.1213 107.977 31.384H105.977C105.977 31.8947 105.892 32.3568 105.731 32.7789L107.599 33.4931ZM107.705 31.384C107.705 32.1098 107.576 32.7603 107.328 33.347L109.17 34.125C109.531 33.2717 109.705 32.3542 109.705 31.384H107.705ZM107.321 33.3646C107.081 33.9638 106.746 34.4724 106.318 34.9009L107.732 36.3151C108.36 35.6876 108.841 34.9482 109.177 34.1074L107.321 33.3646ZM106.318 34.9009C105.889 35.3297 105.37 35.6746 104.747 35.9317L105.511 37.7803C106.36 37.4294 107.105 36.9423 107.732 36.3151L106.318 34.9009ZM104.758 35.9275C104.171 36.1623 103.499 36.288 102.729 36.288V38.288C103.719 38.288 104.647 38.1257 105.5 37.7845L104.758 35.9275ZM102.729 36.288C101.978 36.288 101.303 36.1633 100.693 35.9248L99.9646 37.7872C100.827 38.1247 101.752 38.288 102.729 38.288V36.288ZM100.718 35.9347C100.111 35.6786 99.5966 35.3334 99.1641 34.9009L97.7499 36.3151C98.3734 36.9386 99.1068 37.4254 99.94 37.7773L100.718 35.9347ZM99.1641 34.9009C98.7316 34.4684 98.3864 33.9538 98.1302 33.347L96.2878 34.125C96.6396 34.9582 97.1264 35.6916 97.7499 36.3151L99.1641 34.9009ZM98.1375 33.3646C97.901 32.7733 97.777 32.1167 97.777 31.384H95.777C95.777 32.3473 95.941 33.2587 96.2805 34.1074L98.1375 33.3646ZM97.777 31.384C97.777 30.6513 97.901 29.9947 98.1375 29.4034L96.2805 28.6606C95.941 29.5093 95.777 30.4207 95.777 31.384H97.777ZM98.1302 29.421C98.3864 28.8142 98.7316 28.2996 99.1641 27.8671L97.7499 26.4529C97.1264 27.0764 96.6396 27.8098 96.2878 28.643L98.1302 29.421ZM99.1641 27.8671C99.5927 27.4386 100.101 27.1042 100.7 26.8645L99.9576 25.0075C99.1168 25.3438 98.3773 25.8254 97.7499 26.4529L99.1641 27.8671ZM100.711 26.8603C101.316 26.6104 101.985 26.48 102.729 26.48V24.48C101.745 24.48 100.814 24.6536 99.9472 25.0117L100.711 26.8603ZM102.729 26.48C103.492 26.48 104.158 26.6114 104.74 26.8572L105.518 25.0147C104.66 24.6526 103.726 24.48 102.729 24.48V26.48ZM104.765 26.8672C105.38 27.108 105.893 27.4423 106.318 27.8671L107.732 26.4529C107.101 25.8217 106.35 25.34 105.493 25.0048L104.765 26.8672ZM106.318 27.8671C106.746 28.2956 107.081 28.8042 107.321 29.4034L109.177 28.6606C108.841 27.8198 108.36 27.0804 107.732 26.4529L106.318 27.8671ZM107.328 29.421C107.576 30.0077 107.705 30.6582 107.705 31.384H109.705C109.705 30.4138 109.531 29.4963 109.17 28.643L107.328 29.421ZM113.524 22.288L114.178 23.0437L114.192 23.0316L114.206 23.0191L113.524 22.288ZM111.94 22.288L111.257 23.0191L111.271 23.0316L111.285 23.0437L111.94 22.288ZM111.94 20.632L112.594 21.3877L112.608 21.3756L112.622 21.3631L111.94 20.632ZM113.524 20.632L112.841 21.3631L112.855 21.3756L112.869 21.3877L113.524 20.632ZM113.524 37V38H114.524V37H113.524ZM111.94 37H110.94V38H111.94V37ZM111.94 25.768V24.768H110.94V25.768H111.94ZM113.524 25.768H114.524V24.768H113.524V25.768ZM112.884 21.448C112.884 21.4946 112.876 21.5128 112.874 21.5161C112.873 21.5188 112.868 21.5322 112.841 21.5569L114.206 23.0191C114.654 22.601 114.884 22.0538 114.884 21.448H112.884ZM112.869 21.5323C112.79 21.6001 112.754 21.6 112.732 21.6V23.6C113.285 23.6 113.777 23.3919 114.178 23.0437L112.869 21.5323ZM112.732 21.6C112.709 21.6 112.673 21.6001 112.594 21.5323L111.285 23.0437C111.686 23.3919 112.178 23.6 112.732 23.6V21.6ZM112.622 21.5569C112.595 21.5322 112.59 21.5188 112.589 21.5161C112.587 21.5128 112.58 21.4946 112.58 21.448H110.58C110.58 22.0538 110.809 22.601 111.257 23.0191L112.622 21.5569ZM112.58 21.448C112.58 21.4236 112.582 21.4088 112.583 21.4016C112.584 21.3948 112.585 21.3935 112.584 21.3956C112.584 21.3965 112.584 21.3975 112.583 21.3985C112.582 21.3996 112.582 21.4001 112.582 21.4C112.582 21.3999 112.583 21.3989 112.585 21.3969C112.587 21.395 112.59 21.3918 112.594 21.3877L111.285 19.8763C110.811 20.2864 110.58 20.8411 110.58 21.448H112.58ZM112.622 21.3631C112.669 21.3194 112.698 21.3048 112.708 21.3006C112.716 21.2972 112.721 21.296 112.732 21.296V19.296C112.155 19.296 111.655 19.5301 111.257 19.9009L112.622 21.3631ZM112.732 21.296C112.742 21.296 112.747 21.2972 112.755 21.3006C112.765 21.3048 112.794 21.3194 112.841 21.3631L114.206 19.9009C113.809 19.5301 113.309 19.296 112.732 19.296V21.296ZM112.869 21.3877C112.873 21.3918 112.877 21.395 112.878 21.3969C112.88 21.3989 112.881 21.3999 112.881 21.4C112.881 21.4001 112.881 21.3996 112.88 21.3985C112.88 21.3975 112.879 21.3965 112.879 21.3956C112.878 21.3935 112.879 21.3948 112.88 21.4016C112.881 21.4088 112.884 21.4236 112.884 21.448H114.884C114.884 20.8411 114.652 20.2864 114.178 19.8763L112.869 21.3877ZM113.524 36H111.94V38H113.524V36ZM112.94 37V25.768H110.94V37H112.94ZM111.94 26.768H113.524V24.768H111.94V26.768ZM112.524 25.768V37H114.524V25.768H112.524ZM118.857 25.768L119.852 25.6633L119.757 24.768H118.857V25.768ZM118.905 26.68H117.905V26.7078L117.907 26.7355L118.905 26.68ZM118.929 27.568H117.929V28.568H118.929V27.568ZM118.977 27.568V28.568H119.554L119.843 28.069L118.977 27.568ZM119.649 26.728L120.335 27.4562H120.335L119.649 26.728ZM120.561 26.08L121.025 26.9658L121.041 26.9573L121.057 26.9482L120.561 26.08ZM121.617 25.648L121.87 26.6156L121.883 26.612L121.897 26.608L121.617 25.648ZM125.937 26.632L125.192 27.2993L125.199 27.307L125.937 26.632ZM126.969 37V38H127.969V37H126.969ZM125.385 37H124.385V38H125.385V37ZM124.737 27.928L123.896 28.4688L123.902 28.478L124.737 27.928ZM121.665 27.016L121.837 28.0012H121.837L121.665 27.016ZM120.489 27.544L119.92 26.7218L119.912 26.7271L119.905 26.7325L120.489 27.544ZM119.409 28.84L120.283 29.3256L119.409 28.84ZM118.929 37V38H119.929V37H118.929ZM117.345 37H116.345V38H117.345V37ZM117.297 27.088L116.298 27.1225L116.298 27.1396L116.3 27.1568L117.297 27.088ZM117.225 25.768V24.768H116.145L116.228 25.8447L117.225 25.768ZM117.863 25.8727C117.891 26.1421 117.905 26.4112 117.905 26.68H119.905C119.905 26.3408 119.887 26.0019 119.852 25.6633L117.863 25.8727ZM117.907 26.7355C117.922 27.004 117.929 27.2815 117.929 27.568H119.929C119.929 27.2465 119.921 26.932 119.904 26.6245L117.907 26.7355ZM118.929 28.568H118.977V26.568H118.929V28.568ZM119.843 28.069C119.967 27.8543 120.129 27.6498 120.335 27.4562L118.964 25.9998C118.626 26.3182 118.339 26.6737 118.112 27.067L119.843 28.069ZM120.335 27.4562C120.539 27.2635 120.769 27.1003 121.025 26.9658L120.097 25.1942C119.682 25.4117 119.303 25.6805 118.964 25.9998L120.335 27.4562ZM121.057 26.9482C121.318 26.7992 121.588 26.689 121.87 26.6156L121.365 24.6804C120.91 24.799 120.476 24.9768 120.065 25.2118L121.057 26.9482ZM121.897 26.608C122.198 26.5202 122.48 26.48 122.745 26.48V24.48C122.275 24.48 121.804 24.5518 121.337 24.688L121.897 26.608ZM122.745 26.48C124.017 26.48 124.76 26.8166 125.192 27.2992L126.682 25.9648C125.738 24.9114 124.353 24.48 122.745 24.48V26.48ZM125.199 27.307C125.664 27.8144 125.969 28.6179 125.969 29.872H127.969C127.969 28.3101 127.587 26.9536 126.675 25.957L125.199 27.307ZM125.969 29.872V37H127.969V29.872H125.969ZM126.969 36H125.385V38H126.969V36ZM126.385 37V30.784H124.385V37H126.385ZM126.385 30.784C126.385 29.4459 126.158 28.2674 125.572 27.378L123.902 28.478C124.18 28.9006 124.385 29.6261 124.385 30.784H126.385ZM125.578 27.3872C124.886 26.311 123.676 25.92 122.337 25.92V27.92C123.334 27.92 123.724 28.201 123.896 28.4688L125.578 27.3872ZM122.337 25.92C122.215 25.92 122.071 25.9393 121.968 25.9541C121.841 25.9721 121.682 25.998 121.494 26.0308L121.837 28.0012C122.016 27.97 122.153 27.9479 122.251 27.9339C122.3 27.927 122.333 27.9228 122.355 27.9205C122.383 27.9175 122.371 27.92 122.337 27.92V25.92ZM121.494 26.0308C120.942 26.1268 120.415 26.3789 119.92 26.7218L121.058 28.3662C121.395 28.1331 121.653 28.0332 121.837 28.0012L121.494 26.0308ZM119.905 26.7325C119.352 27.1303 118.904 27.6909 118.535 28.3544L120.283 29.3256C120.555 28.8371 120.826 28.5337 121.073 28.3555L119.905 26.7325ZM118.535 28.3544C118.099 29.1392 117.929 30.1317 117.929 31.24H119.929C119.929 30.3003 120.079 29.6928 120.283 29.3256L118.535 28.3544ZM117.929 31.24V37H119.929V31.24H117.929ZM118.929 36H117.345V38H118.929V36ZM118.345 37V28.24H116.345V37H118.345ZM118.345 28.24C118.345 27.9044 118.328 27.4955 118.295 27.0192L116.3 27.1568C116.331 27.6085 116.345 27.9676 116.345 28.24H118.345ZM118.297 27.0535C118.28 26.577 118.255 26.1228 118.222 25.6913L116.228 25.8447C116.259 26.2452 116.282 26.671 116.298 27.1225L118.297 27.0535ZM117.225 26.768H118.857V24.768H117.225V26.768Z" fill="white"/>
</svg>
