<svg width="75" height="60" viewBox="0 0 75 60" fill="none" xmlns="http://www.w3.org/2000/svg">
<path d="M38.9751 0.708921L39.0001 0.711451H39.0253C58.1882 0.711451 70.3752 10.378 73.119 23.2428C73.9307 27.0489 74.5694 30.9772 73.7188 34.6499C72.1829 41.2818 65.4296 47.5107 56.9143 51.5833C48.4174 55.6471 38.335 57.4792 30.334 55.47C20.9753 53.1198 16.3728 53.9291 12.8048 55.3528C11.9289 55.7023 11.1333 56.078 10.3572 56.4445C8.01431 57.5507 5.84997 58.5727 2.1969 58.5348C2.03646 58.3908 1.97267 58.2176 1.9732 57.9835C1.97394 57.6625 2.1005 57.2341 2.35802 56.6854C2.6114 56.1455 2.96577 55.5412 3.37095 54.8781C3.48134 54.6974 3.59558 54.5122 3.71203 54.3235C4.0178 53.8279 4.33875 53.3077 4.64489 52.7798C5.48595 51.3297 6.27601 49.7237 6.42363 48.1538C6.49844 47.3584 6.4097 46.5618 6.07371 45.7986C5.73757 45.0351 5.16686 44.3343 4.32209 43.7112C2.63915 42.47 1.62404 40.15 1.06798 37.3595C0.515717 34.588 0.436373 31.4555 0.537743 28.7177C0.706901 24.1491 2.10647 19.7228 4.86117 16.1094C10.1295 9.1989 21.1104 -1.09537 38.9751 0.708921Z" fill="white" stroke="#00FFF0"/>
<path d="M49.0916 34.0173C49.0916 35.9158 47.5525 37.4548 45.6541 37.4548C43.7556 37.4548 42.2166 35.9158 42.2166 34.0173C42.2166 32.1188 43.7556 30.5798 45.6541 30.5798C47.5525 30.5798 49.0916 32.1188 49.0916 34.0173Z" fill="#C4C4C4"/>
<path d="M59.5872 25.6421C59.5872 27.5406 58.0481 29.0796 56.1497 29.0796C54.2512 29.0796 52.7122 27.5406 52.7122 25.6421C52.7122 23.7437 54.2512 22.2046 56.1497 22.2046C58.0481 22.2046 59.5872 23.7437 59.5872 25.6421Z" fill="#C4C4C4"/>
<path d="M21.4622 21.2048C21.4622 19.8241 22.5814 18.7048 23.9622 18.7048C25.3429 18.7048 26.4622 19.8241 26.4622 21.2048V34.9548C26.4622 36.3355 25.3429 37.4548 23.9622 37.4548C22.5814 37.4548 21.4622 36.3355 21.4622 34.9548V21.2048Z" fill="#C4C4C4"/>
<rect x="14.5872" y="25.8923" width="18.75" height="5" rx="2.5" fill="#C4C4C4"/>
</svg>
